<?xml version="1.0" encoding="UTF-8"?>
<svg xmlns="http://www.w3.org/2000/svg" width="1600" height="820" viewBox="0 0 1600 820" role="img"><defs><linearGradient id="heroGradient" x1="0%" y1="0%" x2="100%" y2="100%"><stop offset="0%" stop-color="#102c68"></stop><stop offset="50%" stop-color="#15285b"></stop><stop offset="100%" stop-color="#29154a"></stop></linearGradient><radialGradient id="bgOrbA" cx="22%" cy="20%" r="42%"><stop offset="0%" stop-color="#1f559f" stop-opacity="0.42"></stop><stop offset="100%" stop-color="#1f559f" stop-opacity="0"></stop></radialGradient><radialGradient id="bgOrbB" cx="84%" cy="18%" r="34%"><stop offset="0%" stop-color="#6f2dbd" stop-opacity="0.28"></stop><stop offset="100%" stop-color="#6f2dbd" stop-opacity="0"></stop></radialGradient><radialGradient id="bgOrbC" cx="80%" cy="78%" r="30%"><stop offset="0%" stop-color="#0fa3b1" stop-opacity="0.24"></stop><stop offset="100%" stop-color="#0fa3b1" stop-opacity="0"></stop></radialGradient><filter id="cardShadow" x="-20%" y="-20%" width="140%" height="140%"><feDropShadow dx="0" dy="16" stdDeviation="24" flood-color="#030712" flood-opacity="0.38"></feDropShadow></filter><marker id="arrowHead" markerWidth="12" markerHeight="12" refX="10" refY="6" orient="auto"><path d="M0,0 L12,6 L0,12 z" fill="#dbeafe"></path></marker></defs><rect width="1600" height="820" fill="#07111f"></rect><rect width="1600" height="820" fill="url(#bgOrbA)"></rect><rect width="1600" height="820" fill="url(#bgOrbB)"></rect><rect width="1600" height="820" fill="url(#bgOrbC)"></rect><path d="M 100 90 V 750 M 164 90 V 750 M 228 90 V 750 M 292 90 V 750 M 356 90 V 750 M 420 90 V 750 M 484 90 V 750 M 548 90 V 750 M 612 90 V 750 M 676 90 V 750 M 740 90 V 750 M 804 90 V 750 M 868 90 V 750 M 932 90 V 750 M 996 90 V 750 M 1060 90 V 750 M 1124 90 V 750 M 1188 90 V 750 M 1252 90 V 750 M 1316 90 V 750 M 1380 90 V 750 M 1444 90 V 750" stroke="rgba(148, 163, 184, 0.08)" stroke-width="1"></path><path d="M 90 140 H 1530" stroke="rgba(148, 163, 184, 0.08)" stroke-width="1"></path><path d="M 90 700 H 1530" stroke="rgba(148, 163, 184, 0.08)" stroke-width="1"></path><circle cx="800" cy="430" r="350" fill="none" stroke="rgba(124, 58, 237, 0.18)" stroke-width="2" stroke-dasharray="10 16"></circle><circle cx="800" cy="430" r="245" fill="none" stroke="rgba(76, 201, 240, 0.22)" stroke-width="2"></circle><text x="92" y="82" fill="#eff6ff" font-size="46" font-weight="800" font-family="Inter, ui-sans-serif, system-ui, sans-serif">Nebulift Decision Hub</text><text x="92" y="116" fill="#bfd2ee" font-size="20" font-weight="500" font-family="Inter, ui-sans-serif, system-ui, sans-serif">How Nebulift scores each FITS frame and decides its final label.</text><g transform="translate(92 138)"><g transform="translate(0 0)"><rect width="22" height="22" rx="11" fill="#37d39a"></rect><text x="32" y="15" fill="#dbe7fb" font-size="13" font-weight="700" font-family="Inter, ui-sans-serif, system-ui, sans-serif">CV scoring pipeline</text></g><g transform="translate(214 0)"><rect width="22" height="22" rx="11" fill="#9d7cff"></rect><text x="32" y="15" fill="#dbe7fb" font-size="13" font-weight="700" font-family="Inter, ui-sans-serif, system-ui, sans-serif">ML override path</text></g><g transform="translate(428 0)"><rect width="22" height="22" rx="11" fill="#4cc9f0"></rect><text x="32" y="15" fill="#dbe7fb" font-size="13" font-weight="700" font-family="Inter, ui-sans-serif, system-ui, sans-serif">Decision output</text></g></g><g opacity="0.85"><circle cx="110.4" cy="111.52000000000001" r="3" fill="#7dd3fc"></circle><circle cx="100.8" cy="118.89999999999999" r="1.5" fill="#fff"></circle><circle cx="1307.1999999999998" cy="93.48" r="2.5" fill="#f9a8d4"></circle><circle cx="1328" cy="105.78" r="1.5" fill="#fff"></circle><circle cx="1297.6000000000001" cy="469.85999999999996" r="3" fill="#fde68a"></circle><circle cx="257.6" cy="411.64" r="2.5" fill="#c4b5fd"></circle><circle cx="347.2" cy="661.74" r="2" fill="#7dd3fc"></circle></g><g><path d="M 390 410 Q 390.76952104718356 334.5055774420524 430 270" fill="none" stroke="#37d39a" stroke-width="3" marker-end="url(#arrowHead)" opacity="0.95"></path></g><g><path d="M 390 410 Q 390.76952104718356 485.4944225579476 430 550" fill="none" stroke="#37d39a" stroke-width="3" marker-end="url(#arrowHead)" opacity="0.95"></path></g><g><path d="M 750 270 Q 790 270 830 270" fill="none" stroke="#37d39a" stroke-width="3" marker-end="url(#arrowHead)" opacity="0.95"></path></g><g><path d="M 750 550 Q 790 410 830 270" fill="none" stroke="#9d7cff" stroke-width="3" marker-end="url(#arrowHead)" opacity="0.95"></path></g><g><path d="M 1170 270 Q 1213.8348382318968 333.2732720600369 1220 410" fill="none" stroke="#9d7cff" stroke-width="3" marker-end="url(#arrowHead)" opacity="0.95"></path></g><g><path d="M 750 550 Q 990.7095317320033 499.1677136717254 1220 410" fill="none" stroke="#4cc9f0" stroke-width="3" stroke-dasharray="9 9" marker-end="url(#arrowHead)" opacity="0.95"></path></g><g filter="url(#cardShadow)"><rect x="60" y="300" width="330" height="220" rx="28" fill="rgba(12, 30, 53, 0.9)" stroke="#4cc9f0" stroke-width="2"></rect><rect x="61" y="301" width="328" height="218" rx="27" fill="none" stroke="rgba(255,255,255,0.08)"></rect><rect x="84" y="322" width="62" height="62" rx="22" fill="rgba(76, 201, 240, 0.18)" stroke="rgba(255,255,255,0.08)"></rect><g transform="translate(96 334)" style="color:#7de9ff;opacity:1"><svg xmlns="http://www.w3.org/2000/svg" viewBox="0 0 24 24" width="38" height="38"><path fill="currentColor" d="m21.9 8.9l-1.7 1l-4-6.9l1.7-1zm-12.1-1l3 5.2l6.1-3.5l-3-5.2zm1.6 4.8l-2-3.5l-4.3 2.5l2 3.5zm-9.3 1.9l1 1.7l2.6-1.5l-1-1.7zm10-.6l-.3-.4l-4.3 2.5l.3.4c.2.3.5.6.8.8L7 22h2l1.4-4.3h.1L12 22h2l-1.9-5.6c.5-.7.5-1.6 0-2.4"/></svg></g><text x="172" y="342" fill="#8aa3c7" font-size="13" font-weight="700" letter-spacing="1.4" font-family="Inter, ui-sans-serif, system-ui, sans-serif">INPUT</text><text x="172" y="378" fill="#eff6ff" font-size="24" font-weight="800" font-family="Inter, ui-sans-serif, system-ui, sans-serif">FITS Frame</text><text x="86" y="411" fill="#bfd2ee" font-size="14" font-weight="500" font-family="Inter, ui-sans-serif, system-ui, sans-serif">A calibrated frame is loaded</text><text x="86" y="431" fill="#bfd2ee" font-size="14" font-weight="500" font-family="Inter, ui-sans-serif, system-ui, sans-serif">and normalized for analysis.</text><g transform="translate(86 467)"><rect width="177.79999999999998" height="30" rx="15" fill="rgba(76, 201, 240, 0.18)" stroke="rgba(255,255,255,0.08)"></rect><text x="88.89999999999999" y="19" fill="#b7f1ff" font-size="13" font-weight="700" text-anchor="middle" font-family="Inter, ui-sans-serif, system-ui, sans-serif">.fits / .fit / .fts</text></g></g><g filter="url(#cardShadow)"><rect x="430" y="160" width="320" height="220" rx="28" fill="rgba(10, 33, 37, 0.92)" stroke="#37d39a" stroke-width="2"></rect><rect x="431" y="161" width="318" height="218" rx="27" fill="none" stroke="rgba(255,255,255,0.08)"></rect><rect x="454" y="182" width="62" height="62" rx="22" fill="rgba(55, 211, 154, 0.18)" stroke="rgba(255,255,255,0.08)"></rect><g transform="translate(466 194)" style="color:#7df0c3;opacity:1"><svg xmlns="http://www.w3.org/2000/svg" viewBox="0 0 128 128" width="38" height="38"><defs><linearGradient id="icon-python-a" x1="70.252" x2="170.659" y1="1237.476" y2="1151.089" gradientTransform="matrix(.563 0 0 -.568 -29.215 707.817)" gradientUnits="userSpaceOnUse"><stop offset="0" stop-color="#5a9fd4"/><stop offset="1" stop-color="#306998"/></linearGradient><linearGradient id="icon-python-b" x1="209.474" x2="173.62" y1="1098.811" y2="1149.537" gradientTransform="matrix(.563 0 0 -.568 -29.215 707.817)" gradientUnits="userSpaceOnUse"><stop offset="0" stop-color="#ffd43b"/><stop offset="1" stop-color="#ffe873"/></linearGradient><radialGradient id="icon-python-c" cx="1825.678" cy="444.45" r="26.743" gradientTransform="matrix(0 -.24 -1.055 0 532.979 557.576)" gradientUnits="userSpaceOnUse"><stop offset="0" stop-color="#b8b8b8" stop-opacity=".498"/><stop offset="1" stop-color="#7f7f7f" stop-opacity="0"/></radialGradient></defs><path fill="url(#icon-python-a)" d="M63.391 1.988c-4.222.02-8.252.379-11.8 1.007c-10.45 1.846-12.346 5.71-12.346 12.837v9.411h24.693v3.137H29.977c-7.176 0-13.46 4.313-15.426 12.521c-2.268 9.405-2.368 15.275 0 25.096c1.755 7.311 5.947 12.519 13.124 12.519h8.491V67.234c0-8.151 7.051-15.34 15.426-15.34h24.665c6.866 0 12.346-5.654 12.346-12.548V15.833c0-6.693-5.646-11.72-12.346-12.837c-4.244-.706-8.645-1.027-12.866-1.008M50.037 9.557c2.55 0 4.634 2.117 4.634 4.721c0 2.593-2.083 4.69-4.634 4.69c-2.56 0-4.633-2.097-4.633-4.69c-.001-2.604 2.073-4.721 4.633-4.721" transform="translate(0 10.26)"/><path fill="url(#icon-python-b)" d="M91.682 28.38v10.966c0 8.5-7.208 15.655-15.426 15.655H51.591c-6.756 0-12.346 5.783-12.346 12.549v23.515c0 6.691 5.818 10.628 12.346 12.547c7.816 2.297 15.312 2.713 24.665 0c6.216-1.801 12.346-5.423 12.346-12.547v-9.412H63.938v-3.138h37.012c7.176 0 9.852-5.005 12.348-12.519c2.578-7.735 2.467-15.174 0-25.096c-1.774-7.145-5.161-12.521-12.348-12.521h-9.268zM77.809 87.927c2.561 0 4.634 2.097 4.634 4.692c0 2.602-2.074 4.719-4.634 4.719c-2.55 0-4.633-2.117-4.633-4.719c0-2.595 2.083-4.692 4.633-4.692" transform="translate(0 10.26)"/><path fill="url(#icon-python-c)" d="M97.309 119.597c0 3.543-14.816 6.416-33.091 6.416c-18.276 0-33.092-2.873-33.092-6.416s14.815-6.417 33.092-6.417c18.275 0 33.091 2.872 33.091 6.417" opacity=".444"/></svg></g><text x="542" y="202" fill="#8aa3c7" font-size="13" font-weight="700" letter-spacing="1.4" font-family="Inter, ui-sans-serif, system-ui, sans-serif">CV HEURISTICS</text><text x="542" y="238" fill="#eff6ff" font-size="18" font-weight="800" font-family="Inter, ui-sans-serif, system-ui, sans-serif">Artifact Detection</text><text x="456" y="265" fill="#bfd2ee" font-size="14" font-weight="500" font-family="Inter, ui-sans-serif, system-ui, sans-serif">Detects streaks, saturation, hot pixels,</text><text x="456" y="285" fill="#bfd2ee" font-size="14" font-weight="500" font-family="Inter, ui-sans-serif, system-ui, sans-serif">clouds, and other quality signals.</text><text x="456" y="305" fill="#bfd2ee" font-size="14" font-weight="500" font-family="Inter, ui-sans-serif, system-ui, sans-serif">Produces a scored artifact report.</text><g transform="translate(456 341)"><rect width="79.39999999999999" height="30" rx="15" fill="rgba(55, 211, 154, 0.18)" stroke="rgba(255,255,255,0.08)"></rect><text x="39.699999999999996" y="19" fill="#bdf9de" font-size="13" font-weight="700" text-anchor="middle" font-family="Inter, ui-sans-serif, system-ui, sans-serif">Astropy</text></g><g transform="translate(582 341)"><rect width="76" height="30" rx="15" fill="rgba(55, 211, 154, 0.18)" stroke="rgba(255,255,255,0.08)"></rect><text x="38" y="19" fill="#bdf9de" font-size="13" font-weight="700" text-anchor="middle" font-family="Inter, ui-sans-serif, system-ui, sans-serif">OpenCV</text></g></g><g filter="url(#cardShadow)"><rect x="430" y="440" width="320" height="220" rx="28" fill="rgba(10, 33, 37, 0.92)" stroke="#37d39a" stroke-width="2"></rect><rect x="431" y="441" width="318" height="218" rx="27" fill="none" stroke="rgba(255,255,255,0.08)"></rect><rect x="454" y="462" width="62" height="62" rx="22" fill="rgba(55, 211, 154, 0.18)" stroke="rgba(255,255,255,0.08)"></rect><g transform="translate(466 474)" style="color:#7df0c3;opacity:1"><svg xmlns="http://www.w3.org/2000/svg" viewBox="0 0 24 24" width="38" height="38"><path fill="currentColor" d="M4.75 15H6.5q.425 0 .713-.288T7.5 14V9H6v4.75H5V12.5H3.75V14q0 .425.288.713T4.75 15m4.425 0h1.5q.425 0 .713-.288t.287-.712v-1.5q0-.425-.288-.712t-.712-.288h-1.25v-1.25h1v.5h1.25V10q0-.425-.288-.712T10.676 9h-1.5q-.425 0-.712.288T8.175 10v1.5q0 .425.288.713t.712.287h1.25v1.25h-1v-.5h-1.25V14q0 .425.288.713t.712.287m4.4-1.5v-3h1v3zm-.25 1.5h1.5q.425 0 .713-.288t.287-.712v-4q0-.425-.287-.712T14.825 9h-1.5q-.425 0-.712.288t-.288.712v4q0 .425.288.713t.712.287m3.175 0h1.25v-2.625l1 2.625H20V9h-1.25v2.625L17.75 9H16.5zM3 20q-.825 0-1.412-.587T1 18V6q0-.825.588-1.412T3 4h18q.825 0 1.413.588T23 6v12q0 .825-.587 1.413T21 20z"/></svg></g><text x="542" y="482" fill="#8aa3c7" font-size="13" font-weight="700" letter-spacing="1.4" font-family="Inter, ui-sans-serif, system-ui, sans-serif">CV DECISION</text><text x="542" y="518" fill="#eff6ff" font-size="18" font-weight="800" font-family="Inter, ui-sans-serif, system-ui, sans-serif">Threshold Evaluation</text><text x="456" y="545" fill="#bfd2ee" font-size="14" font-weight="500" font-family="Inter, ui-sans-serif, system-ui, sans-serif">Artifact scores are compared against</text><text x="456" y="565" fill="#bfd2ee" font-size="14" font-weight="500" font-family="Inter, ui-sans-serif, system-ui, sans-serif">calibrated thresholds to assign</text><text x="456" y="585" fill="#bfd2ee" font-size="14" font-weight="500" font-family="Inter, ui-sans-serif, system-ui, sans-serif">a preliminary label.</text><g transform="translate(456 621)"><rect width="177.79999999999998" height="30" rx="15" fill="rgba(55, 211, 154, 0.18)" stroke="rgba(255,255,255,0.08)"></rect><text x="88.89999999999999" y="19" fill="#bdf9de" font-size="13" font-weight="700" text-anchor="middle" font-family="Inter, ui-sans-serif, system-ui, sans-serif">local_settings.json</text></g></g><g filter="url(#cardShadow)"><rect x="830" y="160" width="340" height="220" rx="28" fill="rgba(24, 20, 48, 0.94)" stroke="#9d7cff" stroke-width="2"></rect><rect x="831" y="161" width="338" height="218" rx="27" fill="none" stroke="rgba(255,255,255,0.08)"></rect><rect x="854" y="182" width="62" height="62" rx="22" fill="rgba(157, 124, 255, 0.18)" stroke="rgba(255,255,255,0.08)"></rect><g transform="translate(866 194)" style="color:#c8b2ff;opacity:1"><svg xmlns="http://www.w3.org/2000/svg" viewBox="0 0 24 24" width="38" height="38"><g fill="none" stroke="currentColor" stroke-linecap="round" stroke-linejoin="round" stroke-width="2"><path d="M12 5a3 3 0 1 0-5.997.125a4 4 0 0 0-2.526 5.77a4 4 0 0 0 .556 6.588A4 4 0 1 0 12 18Z"/><path d="M9 13a4.5 4.5 0 0 0 3-4M6.003 5.125A3 3 0 0 0 6.401 6.5m-2.924 4.396a4 4 0 0 1 .585-.396M6 18a4 4 0 0 1-1.967-.516M12 13h4m-4 5h6a2 2 0 0 1 2 2v1M12 8h8m-4 0V5a2 2 0 0 1 2-2"/><circle cx="16" cy="13" r=".5"/><circle cx="18" cy="3" r=".5"/><circle cx="20" cy="21" r=".5"/><circle cx="20" cy="8" r=".5"/></g></svg></g><text x="942" y="202" fill="#8aa3c7" font-size="13" font-weight="700" letter-spacing="1.4" font-family="Inter, ui-sans-serif, system-ui, sans-serif">OPTIONAL ML OVERRIDE</text><text x="942" y="238" fill="#eff6ff" font-size="24" font-weight="800" font-family="Inter, ui-sans-serif, system-ui, sans-serif">Promoted Model</text><text x="856" y="271" fill="#bfd2ee" font-size="14" font-weight="500" font-family="Inter, ui-sans-serif, system-ui, sans-serif">A promoted ResNet18 checkpoint can</text><text x="856" y="291" fill="#bfd2ee" font-size="14" font-weight="500" font-family="Inter, ui-sans-serif, system-ui, sans-serif">replace the CV label when confidence</text><text x="856" y="311" fill="#bfd2ee" font-size="14" font-weight="500" font-family="Inter, ui-sans-serif, system-ui, sans-serif">meets the override threshold.</text><g transform="translate(856 347)"><rect width="87.6" height="30" rx="15" fill="rgba(157, 124, 255, 0.18)" stroke="rgba(255,255,255,0.08)"></rect><text x="43.8" y="19" fill="#e4d7ff" font-size="13" font-weight="700" text-anchor="middle" font-family="Inter, ui-sans-serif, system-ui, sans-serif">ResNet18</text></g><g transform="translate(982 347)"><rect width="161.39999999999998" height="30" rx="15" fill="rgba(157, 124, 255, 0.18)" stroke="rgba(255,255,255,0.08)"></rect><text x="80.69999999999999" y="19" fill="#e4d7ff" font-size="13" font-weight="700" text-anchor="middle" font-family="Inter, ui-sans-serif, system-ui, sans-serif">Promoted defaults</text></g></g><g filter="url(#cardShadow)"><rect x="1220" y="300" width="320" height="220" rx="28" fill="rgba(17, 27, 44, 0.94)" stroke="#94a3b8" stroke-width="2"></rect><rect x="1221" y="301" width="318" height="218" rx="27" fill="none" stroke="rgba(255,255,255,0.08)"></rect><rect x="1244" y="322" width="62" height="62" rx="22" fill="rgba(148, 163, 184, 0.15)" stroke="rgba(255,255,255,0.08)"></rect><g transform="translate(1256 334)" style="color:#d3dde9;opacity:1"><svg xmlns="http://www.w3.org/2000/svg" viewBox="0 0 24 24" width="38" height="38"><path fill="currentColor" d="M4.75 15H6.5q.425 0 .713-.288T7.5 14V9H6v4.75H5V12.5H3.75V14q0 .425.288.713T4.75 15m4.425 0h1.5q.425 0 .713-.288t.287-.712v-1.5q0-.425-.288-.712t-.712-.288h-1.25v-1.25h1v.5h1.25V10q0-.425-.288-.712T10.676 9h-1.5q-.425 0-.712.288T8.175 10v1.5q0 .425.288.713t.712.287h1.25v1.25h-1v-.5h-1.25V14q0 .425.288.713t.712.287m4.4-1.5v-3h1v3zm-.25 1.5h1.5q.425 0 .713-.288t.287-.712v-4q0-.425-.287-.712T14.825 9h-1.5q-.425 0-.712.288t-.288.712v4q0 .425.288.713t.712.287m3.175 0h1.25v-2.625l1 2.625H20V9h-1.25v2.625L17.75 9H16.5zM3 20q-.825 0-1.412-.587T1 18V6q0-.825.588-1.412T3 4h18q.825 0 1.413.588T23 6v12q0 .825-.587 1.413T21 20z"/></svg></g><text x="1332" y="342" fill="#8aa3c7" font-size="13" font-weight="700" letter-spacing="1.4" font-family="Inter, ui-sans-serif, system-ui, sans-serif">OUTPUT</text><text x="1332" y="378" fill="#eff6ff" font-size="18" font-weight="800" font-family="Inter, ui-sans-serif, system-ui, sans-serif">Explainable JSON Decision</text><text x="1246" y="405" fill="#bfd2ee" font-size="14" font-weight="500" font-family="Inter, ui-sans-serif, system-ui, sans-serif">Final label, artifact evidence,</text><text x="1246" y="425" fill="#bfd2ee" font-size="14" font-weight="500" font-family="Inter, ui-sans-serif, system-ui, sans-serif">CV scores, and model source are</text><text x="1246" y="445" fill="#bfd2ee" font-size="14" font-weight="500" font-family="Inter, ui-sans-serif, system-ui, sans-serif">written to the batch manifest.</text><g transform="translate(1246 481)"><rect width="128.6" height="30" rx="15" fill="rgba(148, 163, 184, 0.15)" stroke="rgba(255,255,255,0.08)"></rect><text x="64.3" y="19" fill="#d8e2f2" font-size="13" font-weight="700" text-anchor="middle" font-family="Inter, ui-sans-serif, system-ui, sans-serif">manifest.json</text></g></g></svg>
