<?xml version="1.0" encoding="UTF-8"?>
<svg xmlns="http://www.w3.org/2000/svg" width="1800" height="1100" viewBox="0 0 1800 1100" role="img"><defs><linearGradient id="heroGradient" x1="0%" y1="0%" x2="100%" y2="100%"><stop offset="0%" stop-color="#102c68"></stop><stop offset="50%" stop-color="#15285b"></stop><stop offset="100%" stop-color="#29154a"></stop></linearGradient><radialGradient id="bgOrbA" cx="22%" cy="20%" r="42%"><stop offset="0%" stop-color="#1f559f" stop-opacity="0.42"></stop><stop offset="100%" stop-color="#1f559f" stop-opacity="0"></stop></radialGradient><radialGradient id="bgOrbB" cx="84%" cy="18%" r="34%"><stop offset="0%" stop-color="#6f2dbd" stop-opacity="0.28"></stop><stop offset="100%" stop-color="#6f2dbd" stop-opacity="0"></stop></radialGradient><radialGradient id="bgOrbC" cx="80%" cy="78%" r="30%"><stop offset="0%" stop-color="#0fa3b1" stop-opacity="0.24"></stop><stop offset="100%" stop-color="#0fa3b1" stop-opacity="0"></stop></radialGradient><filter id="cardShadow" x="-20%" y="-20%" width="140%" height="140%"><feDropShadow dx="0" dy="16" stdDeviation="24" flood-color="#030712" flood-opacity="0.38"></feDropShadow></filter><marker id="arrowHead" markerWidth="12" markerHeight="12" refX="10" refY="6" orient="auto"><path d="M0,0 L12,6 L0,12 z" fill="#dbeafe"></path></marker></defs><rect width="1800" height="1100" fill="#07111f"></rect><rect width="1800" height="1100" fill="url(#bgOrbA)"></rect><rect width="1800" height="1100" fill="url(#bgOrbB)"></rect><rect width="1800" height="1100" fill="url(#bgOrbC)"></rect><path d="M 100 90 V 1030 M 164 90 V 1030 M 228 90 V 1030 M 292 90 V 1030 M 356 90 V 1030 M 420 90 V 1030 M 484 90 V 1030 M 548 90 V 1030 M 612 90 V 1030 M 676 90 V 1030 M 740 90 V 1030 M 804 90 V 1030 M 868 90 V 1030 M 932 90 V 1030 M 996 90 V 1030 M 1060 90 V 1030 M 1124 90 V 1030 M 1188 90 V 1030 M 1252 90 V 1030 M 1316 90 V 1030 M 1380 90 V 1030 M 1444 90 V 1030" stroke="rgba(148, 163, 184, 0.08)" stroke-width="1"></path><path d="M 90 140 H 1730" stroke="rgba(148, 163, 184, 0.08)" stroke-width="1"></path><path d="M 90 980 H 1730" stroke="rgba(148, 163, 184, 0.08)" stroke-width="1"></path><circle cx="800" cy="430" r="350" fill="none" stroke="rgba(124, 58, 237, 0.18)" stroke-width="2" stroke-dasharray="10 16"></circle><circle cx="800" cy="430" r="245" fill="none" stroke="rgba(76, 201, 240, 0.22)" stroke-width="2"></circle><text x="92" y="82" fill="#eff6ff" font-size="46" font-weight="800" font-family="Inter, ui-sans-serif, system-ui, sans-serif">Nebulift Future Track</text><text x="92" y="116" fill="#bfd2ee" font-size="20" font-weight="500" font-family="Inter, ui-sans-serif, system-ui, sans-serif">GitOps-driven cluster training flow from Git branches through Argo CD into Kubernetes jobs.</text><g transform="translate(92 138)"><g transform="translate(0 0)"><rect width="22" height="22" rx="11" fill="#9d7cff"></rect><text x="32" y="15" fill="#dbe7fb" font-size="13" font-weight="700" font-family="Inter, ui-sans-serif, system-ui, sans-serif">Git source of truth</text></g><g transform="translate(214 0)"><rect width="22" height="22" rx="11" fill="#d3ff65"></rect><text x="32" y="15" fill="#dbe7fb" font-size="13" font-weight="700" font-family="Inter, ui-sans-serif, system-ui, sans-serif">GitOps reconciliation</text></g><g transform="translate(428 0)"><rect width="22" height="22" rx="11" fill="#4cc9f0"></rect><text x="32" y="15" fill="#dbe7fb" font-size="13" font-weight="700" font-family="Inter, ui-sans-serif, system-ui, sans-serif">Cluster training runtime</text></g></g><g opacity="0.85"><circle cx="124.20000000000002" cy="149.60000000000002" r="3" fill="#7dd3fc"></circle><circle cx="113.4" cy="159.5" r="1.5" fill="#fff"></circle><circle cx="1470.6" cy="125.4" r="2.5" fill="#f9a8d4"></circle><circle cx="1494" cy="141.9" r="1.5" fill="#fff"></circle><circle cx="1459.8000000000002" cy="630.3" r="3" fill="#fde68a"></circle><circle cx="289.8" cy="552.2" r="2.5" fill="#c4b5fd"></circle><circle cx="390.6" cy="887.7" r="2" fill="#7dd3fc"></circle></g><g><path d="M 452 354 Q 538.8 396.6 604 468" fill="none" stroke="#9d7cff" stroke-width="3" marker-end="url(#arrowHead)" opacity="0.95"></path></g><g><path d="M 1134 468 Q 1214.5956235857457 389.556737326748 1310 330" fill="none" stroke="#d3ff65" stroke-width="3" marker-end="url(#arrowHead)" opacity="0.95"></path></g><g><path d="M 1505 452 Q 1505.5 531 1506 610" fill="none" stroke="#d3ff65" stroke-width="3" marker-end="url(#arrowHead)" opacity="0.95"></path></g><g><path d="M 1310 737 Q 1181.1341759922366 787.505934332513 1080 882" fill="none" stroke="#4cc9f0" stroke-width="3" marker-end="url(#arrowHead)" opacity="0.95"></path></g><g><path d="M 845 770 Q 799.8825535885596 691.9204506332752 869 634" fill="none" stroke="#d3ff65" stroke-width="3" stroke-dasharray="9 9" marker-end="url(#arrowHead)" opacity="0.95"></path></g><g filter="url(#cardShadow)"><rect x="92" y="240" width="360" height="228" rx="28" fill="rgba(24, 20, 48, 0.94)" stroke="#9d7cff" stroke-width="2"></rect><rect x="93" y="241" width="358" height="226" rx="27" fill="none" stroke="rgba(255,255,255,0.08)"></rect><rect x="116" y="262" width="62" height="62" rx="22" fill="rgba(157, 124, 255, 0.18)" stroke="rgba(255,255,255,0.08)"></rect><g transform="translate(128 274)" style="color:#c8b2ff;opacity:1"><svg xmlns="http://www.w3.org/2000/svg" viewBox="0 0 24 24" width="38" height="38"><path fill="currentColor" d="M12 2A10 10 0 0 0 2 12c0 4.42 2.87 8.17 6.84 9.5c.5.08.66-.23.66-.5v-1.69c-2.77.6-3.36-1.34-3.36-1.34c-.46-1.16-1.11-1.47-1.11-1.47c-.91-.62.07-.6.07-.6c1 .07 1.53 1.03 1.53 1.03c.87 1.52 2.34 1.07 2.91.83c.09-.65.35-1.09.63-1.34c-2.22-.25-4.55-1.11-4.55-4.92c0-1.11.38-2 1.03-2.71c-.1-.25-.45-1.29.1-2.64c0 0 .84-.27 2.75 1.02c.79-.22 1.65-.33 2.5-.33s1.71.11 2.5.33c1.91-1.29 2.75-1.02 2.75-1.02c.55 1.35.2 2.39.1 2.64c.65.71 1.03 1.6 1.03 2.71c0 3.82-2.34 4.66-4.57 4.91c.36.31.69.92.69 1.85V21c0 .27.16.59.67.5C19.14 20.16 22 16.42 22 12A10 10 0 0 0 12 2"/></svg></g><text x="204" y="282" fill="#8aa3c7" font-size="13" font-weight="700" letter-spacing="1.4" font-family="Inter, ui-sans-serif, system-ui, sans-serif">1. COMMIT TO GIT</text><text x="204" y="318" fill="#eff6ff" font-size="21" font-weight="800" font-family="Inter, ui-sans-serif, system-ui, sans-serif">Repo Branches</text><text x="204" y="342" fill="#eff6ff" font-size="21" font-weight="800" font-family="Inter, ui-sans-serif, system-ui, sans-serif">Drive Environments</text><text x="118" y="372" fill="#bfd2ee" font-size="14" font-weight="500" font-family="Inter, ui-sans-serif, system-ui, sans-serif">The repo is the source of truth for cluster state.</text><text x="118" y="392" fill="#bfd2ee" font-size="14" font-weight="500" font-family="Inter, ui-sans-serif, system-ui, sans-serif">Branches map cleanly to development and production.</text><g transform="translate(118 428)"><rect width="136.79999999999998" height="30" rx="15" fill="rgba(157, 124, 255, 0.18)" stroke="rgba(255,255,255,0.08)"></rect><text x="68.39999999999999" y="19" fill="#e4d7ff" font-size="13" font-weight="700" text-anchor="middle" font-family="Inter, ui-sans-serif, system-ui, sans-serif">develop -&gt; dev</text></g><g transform="translate(244 428)"><rect width="120.39999999999999" height="30" rx="15" fill="rgba(157, 124, 255, 0.18)" stroke="rgba(255,255,255,0.08)"></rect><text x="60.199999999999996" y="19" fill="#e4d7ff" font-size="13" font-weight="700" text-anchor="middle" font-family="Inter, ui-sans-serif, system-ui, sans-serif">main -&gt; prod</text></g></g><g filter="url(#cardShadow)"><rect x="604" y="302" width="530" height="332" rx="36" fill="rgba(25, 31, 18, 0.94)" stroke="#d3ff65" stroke-width="2.5"></rect><rect x="605" y="303" width="528" height="330" rx="35" fill="none" stroke="rgba(255,255,255,0.08)"></rect><rect x="628" y="324" width="84" height="84" rx="28" fill="rgba(211, 255, 101, 0.15)" stroke="rgba(255,255,255,0.08)"></rect><g transform="translate(644 340)" style="color:#dfff83;opacity:1"><svg xmlns="http://www.w3.org/2000/svg" viewBox="0 0 24 24" width="52" height="52"><g fill="none" stroke="currentColor" stroke-linecap="round" stroke-linejoin="round" stroke-width="2"><path d="M5 18a2 2 0 1 0 4 0a2 2 0 1 0-4 0M5 6a2 2 0 1 0 4 0a2 2 0 1 0-4 0m10 0a2 2 0 1 0 4 0a2 2 0 1 0-4 0M7 8v8m2 2h6a2 2 0 0 0 2-2v-5"/><path d="m14 14l3-3l3 3"/></g></svg></g><text x="730" y="344" fill="#8aa3c7" font-size="13" font-weight="700" letter-spacing="1.4" font-family="Inter, ui-sans-serif, system-ui, sans-serif">2. ARGO CD CONTROL PLANE</text><text x="730" y="380" fill="#eff6ff" font-size="36" font-weight="800" font-family="Inter, ui-sans-serif, system-ui, sans-serif">ApplicationSet</text><text x="730" y="420" fill="#eff6ff" font-size="36" font-weight="800" font-family="Inter, ui-sans-serif, system-ui, sans-serif">Creates Desired State</text><text x="630" y="466" fill="#bfd2ee" font-size="16" font-weight="500" font-family="Inter, ui-sans-serif, system-ui, sans-serif">Argo CD watches the Nebulift repo, expands the ApplicationSet,</text><text x="630" y="490" fill="#bfd2ee" font-size="16" font-weight="500" font-family="Inter, ui-sans-serif, system-ui, sans-serif">and reconciles branch-specific Applications.</text><text x="630" y="514" fill="#bfd2ee" font-size="16" font-weight="500" font-family="Inter, ui-sans-serif, system-ui, sans-serif">Auto-sync, retries, pruning, and self-heal stay in the loop.</text><g transform="translate(630 554)"><rect width="136.79999999999998" height="30" rx="15" fill="rgba(211, 255, 101, 0.15)" stroke="rgba(255,255,255,0.08)"></rect><text x="68.39999999999999" y="19" fill="#efffc6" font-size="13" font-weight="700" text-anchor="middle" font-family="Inter, ui-sans-serif, system-ui, sans-serif">automated sync</text></g><g transform="translate(756 554)"><rect width="161.39999999999998" height="30" rx="15" fill="rgba(211, 255, 101, 0.15)" stroke="rgba(255,255,255,0.08)"></rect><text x="80.69999999999999" y="19" fill="#efffc6" font-size="13" font-weight="700" text-anchor="middle" font-family="Inter, ui-sans-serif, system-ui, sans-serif">prune + self-heal</text></g><g transform="translate(630 590)"><rect width="128.6" height="30" rx="15" fill="rgba(211, 255, 101, 0.15)" stroke="rgba(255,255,255,0.08)"></rect><text x="64.3" y="19" fill="#efffc6" font-size="13" font-weight="700" text-anchor="middle" font-family="Inter, ui-sans-serif, system-ui, sans-serif">retry backoff</text></g></g><g filter="url(#cardShadow)"><rect x="1310" y="208" width="390" height="244" rx="28" fill="rgba(17, 27, 44, 0.94)" stroke="#94a3b8" stroke-width="2"></rect><rect x="1311" y="209" width="388" height="242" rx="27" fill="none" stroke="rgba(255,255,255,0.08)"></rect><rect x="1334" y="230" width="62" height="62" rx="22" fill="rgba(148, 163, 184, 0.15)" stroke="rgba(255,255,255,0.08)"></rect><g transform="translate(1346 242)" style="color:#d3dde9;opacity:1"><svg xmlns="http://www.w3.org/2000/svg" viewBox="0 0 24 24" width="38" height="38"><path fill="currentColor" d="M4.75 15H6.5q.425 0 .713-.288T7.5 14V9H6v4.75H5V12.5H3.75V14q0 .425.288.713T4.75 15m4.425 0h1.5q.425 0 .713-.288t.287-.712v-1.5q0-.425-.288-.712t-.712-.288h-1.25v-1.25h1v.5h1.25V10q0-.425-.288-.712T10.676 9h-1.5q-.425 0-.712.288T8.175 10v1.5q0 .425.288.713t.712.287h1.25v1.25h-1v-.5h-1.25V14q0 .425.288.713t.712.287m4.4-1.5v-3h1v3zm-.25 1.5h1.5q.425 0 .713-.288t.287-.712v-4q0-.425-.287-.712T14.825 9h-1.5q-.425 0-.712.288t-.288.712v4q0 .425.288.713t.712.287m3.175 0h1.25v-2.625l1 2.625H20V9h-1.25v2.625L17.75 9H16.5zM3 20q-.825 0-1.412-.587T1 18V6q0-.825.588-1.412T3 4h18q.825 0 1.413.588T23 6v12q0 .825-.587 1.413T21 20z"/></svg></g><text x="1422" y="250" fill="#8aa3c7" font-size="13" font-weight="700" letter-spacing="1.4" font-family="Inter, ui-sans-serif, system-ui, sans-serif">3. RENDER MANIFESTS</text><text x="1422" y="286" fill="#eff6ff" font-size="23" font-weight="800" font-family="Inter, ui-sans-serif, system-ui, sans-serif">Kustomize Overlays</text><text x="1336" y="318" fill="#bfd2ee" font-size="14" font-weight="500" font-family="Inter, ui-sans-serif, system-ui, sans-serif">Each Application targets an environment overlay.</text><text x="1336" y="338" fill="#bfd2ee" font-size="14" font-weight="500" font-family="Inter, ui-sans-serif, system-ui, sans-serif">Overlays patch namespace, config, and replicas</text><text x="1336" y="358" fill="#bfd2ee" font-size="14" font-weight="500" font-family="Inter, ui-sans-serif, system-ui, sans-serif">on top of the shared base resources.</text><g transform="translate(1336 394)"><rect width="112.19999999999999" height="30" rx="15" fill="rgba(148, 163, 184, 0.15)" stroke="rgba(255,255,255,0.08)"></rect><text x="56.099999999999994" y="19" fill="#d8e2f2" font-size="13" font-weight="700" text-anchor="middle" font-family="Inter, ui-sans-serif, system-ui, sans-serif">development</text></g><g transform="translate(1462 394)"><rect width="104" height="30" rx="15" fill="rgba(148, 163, 184, 0.15)" stroke="rgba(255,255,255,0.08)"></rect><text x="52" y="19" fill="#d8e2f2" font-size="13" font-weight="700" text-anchor="middle" font-family="Inter, ui-sans-serif, system-ui, sans-serif">production</text></g></g><g filter="url(#cardShadow)"><rect x="1310" y="610" width="392" height="254" rx="28" fill="rgba(12, 30, 53, 0.9)" stroke="#4cc9f0" stroke-width="2"></rect><rect x="1311" y="611" width="390" height="252" rx="27" fill="none" stroke="rgba(255,255,255,0.08)"></rect><rect x="1334" y="632" width="62" height="62" rx="22" fill="rgba(76, 201, 240, 0.18)" stroke="rgba(255,255,255,0.08)"></rect><g transform="translate(1346 644)" style="color:#7de9ff;opacity:1"><svg xmlns="http://www.w3.org/2000/svg" viewBox="0 0 128 128" width="38" height="38"><path fill="#326ce5" d="M63.556 1.912a8.51 8.44 0 0 0-3.26.826L15.795 24a8.51 8.44 0 0 0-4.604 5.725L.214 77.485a8.51 8.44 0 0 0 1.155 6.47a8.51 8.44 0 0 0 .484.672l30.8 38.296a8.51 8.44 0 0 0 6.653 3.176l49.394-.012a8.51 8.44 0 0 0 6.653-3.17l30.789-38.301a8.51 8.44 0 0 0 1.645-7.142l-10.996-47.76a8.51 8.44 0 0 0-4.604-5.726L67.682 2.738a8.51 8.44 0 0 0-4.126-.826"/><path fill="#fff" d="M63.975 18.143v.01c-1.472.014-2.664 1.336-2.664 2.972c0 .028.005.052.005.074c-.002.222-.012.49-.005.684c.035.946.24 1.668.365 2.535c.17 1.42.215 2.547.224 3.687l.036-.164a41 41 0 0 0-.118-2.394c.139 1.228.24 2.364.186 3.392c-.015-.325-.061-.677-.066-.982l-.036.164c.003.347.096.79.069 1.123c-.061.29-.291.495-.467.742l-.025.121c.173-.227.354-.444.46-.699c-.134.423-.42.796-.707 1.094c.08-.124.146-.262.24-.385l.026-.12c-.145.203-.227.457-.385.61l-.006.006l-.064 1.12a35 35 0 0 0-4.797.736a34.3 34.3 0 0 0-17.398 9.935c-.296-.202-.8-.56-.95-.672l-.005-.005l-.01.002c-.478.064-.95.207-1.57-.153c-1.187-.8-2.271-1.907-3.584-3.24c-.601-.637-1.037-1.246-1.754-1.861c-.163-.141-.41-.33-.592-.473a3.2 3.2 0 0 0-1.87-.705c-.825-.028-1.62.294-2.14.947c-.925 1.16-.628 2.933.658 3.96l.04.026c.174.143.39.326.552.446c.762.561 1.457.849 2.21 1.293c1.594.984 2.91 1.798 3.956 2.779c.402.427.474 1.19.53 1.525v.008l.847.754c-4.561 6.874-6.675 15.36-5.432 24.006l-1.103.324l-.004.006c-.295.381-.712.972-1.135 1.147c-1.366.43-2.908.588-4.77.783c-.872.073-1.626.031-2.556.207c-.205.04-.49.112-.713.164l-.023.006l-.04.011c-1.58.383-2.6 1.837-2.27 3.272c.327 1.435 1.873 2.306 3.464 1.963l.039-.006h.002c.02-.005.038-.015.05-.018c.22-.048.496-.101.69-.154c.913-.245 1.574-.603 2.393-.916c1.76-.632 3.218-1.16 4.637-1.365c.582-.046 1.204.362 1.517.537l.008.004l1.152-.197c2.674 8.274 8.266 14.96 15.346 19.162l-.48 1.152l.003.01c.174.45.364 1.057.237 1.492c-.516 1.336-1.4 2.749-2.408 4.326c-.488.728-.99 1.295-1.43 2.131c-.107.201-.24.507-.342.717c-.69 1.475-.184 3.177 1.143 3.816c1.335.643 2.99-.036 3.707-1.513l.007-.008v-.01c.1-.207.242-.478.329-.674c.378-.866.505-1.607.77-2.441h-.003c.706-1.773 1.094-3.627 2.059-4.778c.26-.31.688-.432 1.136-.552l.01-.004l.6-1.084a34.44 34.44 0 0 0 24.556.062c.172.303.478.865.563 1.01l.004.006l.008.004c.458.149.948.223 1.35.816c.722 1.237 1.218 2.703 1.822 4.475c.265.832.397 1.575.775 2.441c.087.2.23.475.33.684c.715 1.482 2.375 2.163 3.713 1.52c1.326-.64 1.832-2.34 1.143-3.815c-.102-.21-.243-.518-.348-.719c-.441-.836-.943-1.397-1.43-2.125c-1.01-1.577-1.843-2.885-2.36-4.222c-.213-.685.036-1.104.206-1.555l.006-.014l-.01-.01a1 1 0 0 1-.09-.168a6 6 0 0 1-.12-.29c-.08-.21-.16-.442-.224-.596c7.358-4.35 12.786-11.285 15.34-19.295c.347.054.93.155 1.12.193l.01.002l.009-.004c.402-.265.76-.606 1.475-.549c1.419.205 2.876.734 4.638 1.366c.817.312 1.479.677 2.393.921c.194.052.47.101.69.149c.012.003.029.012.05.017h.002l.04.004c1.59.341 3.137-.528 3.464-1.963s-.691-2.888-2.272-3.269c-.227-.052-.551-.141-.775-.184c-.93-.176-1.683-.132-2.557-.205c-1.86-.195-3.402-.353-4.77-.783c-.547-.213-.942-.872-1.138-1.148l-.006-.006l-1.066-.31a34.4 34.4 0 0 0-.56-12.425a34.5 34.5 0 0 0-4.983-11.525c.278-.252.785-.701.932-.836l.007-.006v-.01c.044-.48.006-.97.495-1.494c1.045-.98 2.364-1.797 3.957-2.779c.754-.444 1.454-.731 2.214-1.293c.174-.128.408-.328.588-.473c1.286-1.026 1.584-2.798.658-3.959c-.925-1.16-2.718-1.267-4.003-.242c-.182.145-.43.332-.594.473c-.717.618-1.16 1.226-1.76 1.863c-1.313 1.335-2.398 2.446-3.586 3.246c-.507.294-1.258.193-1.603.172h-.008l-1.004.719c-5.775-6.048-13.63-9.916-22.09-10.672a64 64 0 0 1-.064-1.174v-.008l-.006-.006c-.35-.333-.76-.61-.864-1.318v-.002c-.115-1.428.077-2.967.3-4.824c.125-.867.332-1.59.366-2.535c.009-.216-.005-.527-.005-.758c0-1.645-1.203-2.982-2.688-2.982z"/></svg></g><text x="1422" y="652" fill="#8aa3c7" font-size="13" font-weight="700" letter-spacing="1.4" font-family="Inter, ui-sans-serif, system-ui, sans-serif">4. APPLY TO CLUSTER</text><text x="1422" y="688" fill="#eff6ff" font-size="18" font-weight="800" font-family="Inter, ui-sans-serif, system-ui, sans-serif">Kubernetes Training Job</text><text x="1336" y="715" fill="#bfd2ee" font-size="14" font-weight="500" font-family="Inter, ui-sans-serif, system-ui, sans-serif">The base manifest defines an indexed Job for</text><text x="1336" y="735" fill="#bfd2ee" font-size="14" font-weight="500" font-family="Inter, ui-sans-serif, system-ui, sans-serif">distributed training with arm64 scheduling,</text><text x="1336" y="755" fill="#bfd2ee" font-size="14" font-weight="500" font-family="Inter, ui-sans-serif, system-ui, sans-serif">headless coordination, and shared volumes.</text><g transform="translate(1336 791)"><rect width="120.39999999999999" height="30" rx="15" fill="rgba(76, 201, 240, 0.18)" stroke="rgba(255,255,255,0.08)"></rect><text x="60.199999999999996" y="19" fill="#b7f1ff" font-size="13" font-weight="700" text-anchor="middle" font-family="Inter, ui-sans-serif, system-ui, sans-serif">indexed pods</text></g><g transform="translate(1462 791)"><rect width="136.79999999999998" height="30" rx="15" fill="rgba(76, 201, 240, 0.18)" stroke="rgba(255,255,255,0.08)"></rect><text x="68.39999999999999" y="19" fill="#b7f1ff" font-size="13" font-weight="700" text-anchor="middle" font-family="Inter, ui-sans-serif, system-ui, sans-serif">arm64 affinity</text></g><circle cx="1356" cy="836" r="16" fill="rgba(255,255,255,0.07)" stroke="rgba(255,255,255,0.1)"></circle><g transform="translate(1344 824)" style="color:#eff6ff;opacity:1"><svg xmlns="http://www.w3.org/2000/svg" viewBox="0 0 128 128" width="24" height="24"><path fill="#3a4d54" fill-rule="evenodd" d="M73.8 50.8h11.3v11.5h5.7c2.6 0 5.3-.5 7.8-1.3c1.2-.4 2.6-1 3.8-1.7c-1.6-2.1-2.4-4.7-2.6-7.3c-.3-3.5.4-8.1 2.8-10.8l1.2-1.4l1.4 1.1c3.6 2.9 6.5 6.8 7.1 11.4c4.3-1.3 9.3-1 13.1 1.2l1.5.9l-.8 1.6c-3.2 6.2-9.9 8.2-16.4 7.8c-9.8 24.3-31 35.8-56.8 35.8c-13.3 0-25.5-5-32.5-16.8l-.1-.2l-1-2.1c-2.4-5.2-3.1-10.9-2.6-16.6l.2-1.7h9.6V50.8h11.3V39.6h22.5V28.3h13.5z" clip-rule="evenodd"/><path fill="#00aada" d="M110.4 55.1c.8-5.9-3.6-10.5-6.4-12.7c-3.1 3.6-3.6 13.2 1.3 17.2c-2.8 2.4-8.5 4.7-14.5 4.7H18.6c-.6 6.2.5 11.9 3 16.8l.8 1.5c.5.9 1.1 1.7 1.7 2.6c3 .2 5.7.3 8.2.2c4.9-.1 8.9-.7 12-1.7c.5-.2.9.1 1.1.5c.2.5-.1.9-.5 1.1c-.4.1-.8.3-1.3.4c-2.4.7-5 1.1-8.3 1.3h-.6c-1.3.1-2.7.1-4.2.1c-1.6 0-3.1 0-4.9-.1c6 6.8 15.4 10.8 27.2 10.8c25 0 46.2-11.1 55.5-35.9c6.7.7 13.1-1 16-6.7c-4.5-2.7-10.5-1.8-13.9-.1"/><path fill="#28b8eb" d="M110.4 55.1c.8-5.9-3.6-10.5-6.4-12.7c-3.1 3.6-3.6 13.2 1.3 17.2c-2.8 2.4-8.5 4.7-14.5 4.7h-68c-.3 9.5 3.2 16.7 9.5 21c4.9-.1 8.9-.7 12-1.7c.5-.2.9.1 1.1.5c.2.5-.1.9-.5 1.1c-.4.1-.8.3-1.3.4c-2.4.7-5.2 1.2-8.5 1.4l-.1-.1c8.5 4.4 20.8 4.3 35-1.1c15.8-6.1 30.6-17.7 40.9-30.9c-.2.1-.4.1-.5.2"/><path fill="#028bb8" d="M18.7 71.8c.4 3.3 1.4 6.4 2.9 9.3l.8 1.5c.5.9 1.1 1.7 1.7 2.6c3 .2 5.7.3 8.2.2c4.9-.1 8.9-.7 12-1.7c.5-.2.9.1 1.1.5c.2.5-.1.9-.5 1.1c-.4.1-.8.3-1.3.4c-2.4.7-5.2 1.2-8.5 1.4h-.4c-1.3.1-2.7.1-4.1.1c-1.6 0-3.2 0-4.9-.1c6 6.8 15.5 10.8 27.3 10.8c21.4 0 40-8.1 50.8-26H18.7z"/><path fill="#019bc6" d="M23.5 71.8c1.3 5.8 4.3 10.4 8.8 13.5c4.9-.1 8.9-.7 12-1.7c.5-.2.9.1 1.1.5c.2.5-.1.9-.5 1.1c-.4.1-.8.3-1.3.4c-2.4.7-5.2 1.2-8.6 1.4c8.5 4.4 20.8 4.3 34.9-1.1c8.5-3.3 16.8-8.2 24.2-14.1z"/><path fill="#00acd3" fill-rule="evenodd" d="M28.4 52.7h9.8v9.8h-9.8zm.8.8h.8v8.1h-.8zm1.4 0h.8v8.1h-.8zm1.5 0h.8v8.1h-.8zm1.5 0h.8v8.1h-.8zm1.5 0h.8v8.1h-.8zm1.5 0h.8v8.1h-.8zm3-12h9.8v9.8h-9.8zm.9.8h.8v8.1h-.8zm1.4 0h.8v8.1h-.8zm1.5 0h.8v8.1h-.8zm1.5 0h.8v8.1h-.8zm1.4 0h.8v8.1h-.8zm1.5 0h.8v8.1h-.8z" clip-rule="evenodd"/><path fill="#23c2ee" fill-rule="evenodd" d="M39.6 52.7h9.8v9.8h-9.8zm.9.8h.8v8.1h-.8zm1.4 0h.8v8.1h-.8zm1.5 0h.8v8.1h-.8zm1.5 0h.8v8.1h-.8zm1.4 0h.8v8.1h-.8zm1.5 0h.8v8.1h-.8z" clip-rule="evenodd"/><path fill="#00acd3" fill-rule="evenodd" d="M50.9 52.7h9.8v9.8h-9.8zm.8.8h.8v8.1h-.8zm1.5 0h.8v8.1h-.8zm1.5 0h.8v8.1h-.8zm1.4 0h.8v8.1h-.8zm1.5 0h.8v8.1h-.8zm1.5 0h.8v8.1h-.8z" clip-rule="evenodd"/><path fill="#23c2ee" fill-rule="evenodd" d="M50.9 41.5h9.8v9.8h-9.8zm.8.8h.8v8.1h-.8zm1.5 0h.8v8.1h-.8zm1.5 0h.8v8.1h-.8zm1.4 0h.8v8.1h-.8zm1.5 0h.8v8.1h-.8zm1.5 0h.8v8.1h-.8zm3.1 10.4H72v9.8h-9.8zm.8.8h.8v8.1H63zm1.5 0h.8v8.1h-.8zm1.4 0h.8v8.1h-.8zm1.5 0h.8v8.1h-.8zm1.5 0h.8v8.1h-.8zm1.5 0h.8v8.1h-.8z" clip-rule="evenodd"/><path fill="#00acd3" fill-rule="evenodd" d="M62.2 41.5H72v9.8h-9.8zm.8.8h.8v8.1H63zm1.5 0h.8v8.1h-.8zm1.4 0h.8v8.1h-.8zm1.5 0h.8v8.1h-.8zm1.5 0h.8v8.1h-.8zm1.5 0h.8v8.1h-.8z" clip-rule="evenodd"/><path fill="#23c2ee" fill-rule="evenodd" d="M62.2 30.2H72V40h-9.8zm.8.8h.8v8.1H63zm1.5 0h.8v8.1h-.8zm1.4 0h.8v8.1h-.8zm1.5 0h.8v8.1h-.8zm1.5 0h.8v8.1h-.8zm1.5 0h.8v8.1h-.8z" clip-rule="evenodd"/><path fill="#00acd3" fill-rule="evenodd" d="M73.5 52.7h9.8v9.8h-9.8zm.8.8h.8v8.1h-.8zm1.4 0h.8v8.1h-.8zm1.5 0h.8v8.1h-.8zm1.5 0h.8v8.1h-.8zm1.5 0h.8v8.1h-.8zm1.5 0h.8v8.1h-.8z" clip-rule="evenodd"/><path fill="#d4eef1" fill-rule="evenodd" d="M48.8 78.3c1.5 0 2.7 1.2 2.7 2.7s-1.2 2.7-2.7 2.7s-2.7-1.2-2.7-2.7s1.2-2.7 2.7-2.7" clip-rule="evenodd"/><path fill="#3a4d54" fill-rule="evenodd" d="M48.8 79.1c.2 0 .5 0 .7.1c-.2.1-.4.4-.4.7c0 .4.4.8.8.8c.3 0 .6-.2.7-.4c.1.2.1.5.1.7c0 1.1-.9 1.9-1.9 1.9c-1.1 0-1.9-.9-1.9-1.9s.8-1.9 1.9-1.9M1.1 72.8h125.4c-2.7-.7-8.6-1.6-7.7-5.2c-5 5.7-16.9 4-20 1.2c-3.4 4.9-23 3-24.3-.8c-4.2 5-17.3 5-21.5 0c-1.4 3.8-21 5.7-24.3.8c-3 2.8-15 4.5-20-1.2c1.1 3.5-4.9 4.5-7.6 5.2" clip-rule="evenodd"/><path fill="#bfdbe0" d="M56 97.8c-6.7-3.2-10.3-7.5-12.4-12.2c-2.5.7-5.5 1.2-8.9 1.4c-1.3.1-2.7.1-4.1.1c-1.7 0-3.4 0-5.2-.1c6 6 13.6 10.7 27.5 10.8z"/><path fill="#d4eef1" d="M46.1 89.9c-.9-1.3-1.8-2.8-2.5-4.3c-2.5.7-5.5 1.2-8.9 1.4c2.3 1.2 5.7 2.4 11.4 2.9"/></svg></g><circle cx="1400" cy="836" r="16" fill="rgba(255,255,255,0.07)" stroke="rgba(255,255,255,0.1)"></circle><g transform="translate(1388 824)" style="color:#eff6ff;opacity:1"><svg xmlns="http://www.w3.org/2000/svg" viewBox="0 0 128 128" width="24" height="24"><path fill="#326ce5" d="M63.556 1.912a8.51 8.44 0 0 0-3.26.826L15.795 24a8.51 8.44 0 0 0-4.604 5.725L.214 77.485a8.51 8.44 0 0 0 1.155 6.47a8.51 8.44 0 0 0 .484.672l30.8 38.296a8.51 8.44 0 0 0 6.653 3.176l49.394-.012a8.51 8.44 0 0 0 6.653-3.17l30.789-38.301a8.51 8.44 0 0 0 1.645-7.142l-10.996-47.76a8.51 8.44 0 0 0-4.604-5.726L67.682 2.738a8.51 8.44 0 0 0-4.126-.826"/><path fill="#fff" d="M63.975 18.143v.01c-1.472.014-2.664 1.336-2.664 2.972c0 .028.005.052.005.074c-.002.222-.012.49-.005.684c.035.946.24 1.668.365 2.535c.17 1.42.215 2.547.224 3.687l.036-.164a41 41 0 0 0-.118-2.394c.139 1.228.24 2.364.186 3.392c-.015-.325-.061-.677-.066-.982l-.036.164c.003.347.096.79.069 1.123c-.061.29-.291.495-.467.742l-.025.121c.173-.227.354-.444.46-.699c-.134.423-.42.796-.707 1.094c.08-.124.146-.262.24-.385l.026-.12c-.145.203-.227.457-.385.61l-.006.006l-.064 1.12a35 35 0 0 0-4.797.736a34.3 34.3 0 0 0-17.398 9.935c-.296-.202-.8-.56-.95-.672l-.005-.005l-.01.002c-.478.064-.95.207-1.57-.153c-1.187-.8-2.271-1.907-3.584-3.24c-.601-.637-1.037-1.246-1.754-1.861c-.163-.141-.41-.33-.592-.473a3.2 3.2 0 0 0-1.87-.705c-.825-.028-1.62.294-2.14.947c-.925 1.16-.628 2.933.658 3.96l.04.026c.174.143.39.326.552.446c.762.561 1.457.849 2.21 1.293c1.594.984 2.91 1.798 3.956 2.779c.402.427.474 1.19.53 1.525v.008l.847.754c-4.561 6.874-6.675 15.36-5.432 24.006l-1.103.324l-.004.006c-.295.381-.712.972-1.135 1.147c-1.366.43-2.908.588-4.77.783c-.872.073-1.626.031-2.556.207c-.205.04-.49.112-.713.164l-.023.006l-.04.011c-1.58.383-2.6 1.837-2.27 3.272c.327 1.435 1.873 2.306 3.464 1.963l.039-.006h.002c.02-.005.038-.015.05-.018c.22-.048.496-.101.69-.154c.913-.245 1.574-.603 2.393-.916c1.76-.632 3.218-1.16 4.637-1.365c.582-.046 1.204.362 1.517.537l.008.004l1.152-.197c2.674 8.274 8.266 14.96 15.346 19.162l-.48 1.152l.003.01c.174.45.364 1.057.237 1.492c-.516 1.336-1.4 2.749-2.408 4.326c-.488.728-.99 1.295-1.43 2.131c-.107.201-.24.507-.342.717c-.69 1.475-.184 3.177 1.143 3.816c1.335.643 2.99-.036 3.707-1.513l.007-.008v-.01c.1-.207.242-.478.329-.674c.378-.866.505-1.607.77-2.441h-.003c.706-1.773 1.094-3.627 2.059-4.778c.26-.31.688-.432 1.136-.552l.01-.004l.6-1.084a34.44 34.44 0 0 0 24.556.062c.172.303.478.865.563 1.01l.004.006l.008.004c.458.149.948.223 1.35.816c.722 1.237 1.218 2.703 1.822 4.475c.265.832.397 1.575.775 2.441c.087.2.23.475.33.684c.715 1.482 2.375 2.163 3.713 1.52c1.326-.64 1.832-2.34 1.143-3.815c-.102-.21-.243-.518-.348-.719c-.441-.836-.943-1.397-1.43-2.125c-1.01-1.577-1.843-2.885-2.36-4.222c-.213-.685.036-1.104.206-1.555l.006-.014l-.01-.01a1 1 0 0 1-.09-.168a6 6 0 0 1-.12-.29c-.08-.21-.16-.442-.224-.596c7.358-4.35 12.786-11.285 15.34-19.295c.347.054.93.155 1.12.193l.01.002l.009-.004c.402-.265.76-.606 1.475-.549c1.419.205 2.876.734 4.638 1.366c.817.312 1.479.677 2.393.921c.194.052.47.101.69.149c.012.003.029.012.05.017h.002l.04.004c1.59.341 3.137-.528 3.464-1.963s-.691-2.888-2.272-3.269c-.227-.052-.551-.141-.775-.184c-.93-.176-1.683-.132-2.557-.205c-1.86-.195-3.402-.353-4.77-.783c-.547-.213-.942-.872-1.138-1.148l-.006-.006l-1.066-.31a34.4 34.4 0 0 0-.56-12.425a34.5 34.5 0 0 0-4.983-11.525c.278-.252.785-.701.932-.836l.007-.006v-.01c.044-.48.006-.97.495-1.494c1.045-.98 2.364-1.797 3.957-2.779c.754-.444 1.454-.731 2.214-1.293c.174-.128.408-.328.588-.473c1.286-1.026 1.584-2.798.658-3.959c-.925-1.16-2.718-1.267-4.003-.242c-.182.145-.43.332-.594.473c-.717.618-1.16 1.226-1.76 1.863c-1.313 1.335-2.398 2.446-3.586 3.246c-.507.294-1.258.193-1.603.172h-.008l-1.004.719c-5.775-6.048-13.63-9.916-22.09-10.672a64 64 0 0 1-.064-1.174v-.008l-.006-.006c-.35-.333-.76-.61-.864-1.318v-.002c-.115-1.428.077-2.967.3-4.824c.125-.867.332-1.59.366-2.535c.009-.216-.005-.527-.005-.758c0-1.645-1.203-2.982-2.688-2.982z"/></svg></g></g><g filter="url(#cardShadow)"><rect x="610" y="770" width="470" height="224" rx="28" fill="rgba(10, 33, 37, 0.92)" stroke="#37d39a" stroke-width="2"></rect><rect x="611" y="771" width="468" height="222" rx="27" fill="none" stroke="rgba(255,255,255,0.08)"></rect><rect x="634" y="792" width="62" height="62" rx="22" fill="rgba(55, 211, 154, 0.18)" stroke="rgba(255,255,255,0.08)"></rect><g transform="translate(646 804)" style="color:#7df0c3;opacity:1"><svg xmlns="http://www.w3.org/2000/svg" viewBox="0 0 24 24" width="38" height="38"><path fill="currentColor" d="M4 20q-.825 0-1.412-.587T2 18V6q0-.825.588-1.412T4 4h16q.825 0 1.413.588T22 6v12q0 .825-.587 1.413T20 20zm0-2h16V8H4zm4.675-5l-1.9-1.9q-.3-.3-.288-.7t.313-.7q.3-.275.7-.287t.7.287l2.6 2.6q.3.3.3.7t-.3.7l-2.6 2.6q-.275.275-.687.288T6.8 16.3q-.275-.275-.275-.7t.275-.7zM13 17q-.425 0-.712-.288T12 16t.288-.712T13 15h4q.425 0 .713.288T18 16t-.288.713T17 17z"/></svg></g><text x="722" y="812" fill="#8aa3c7" font-size="13" font-weight="700" letter-spacing="1.4" font-family="Inter, ui-sans-serif, system-ui, sans-serif">5. RECONCILE AND OBSERVE</text><text x="722" y="848" fill="#eff6ff" font-size="21" font-weight="800" font-family="Inter, ui-sans-serif, system-ui, sans-serif">Continuous Training Runtime</text><text x="636" y="878" fill="#bfd2ee" font-size="14" font-weight="500" font-family="Inter, ui-sans-serif, system-ui, sans-serif">Argo CD keeps cluster resources aligned with Git,</text><text x="636" y="898" fill="#bfd2ee" font-size="14" font-weight="500" font-family="Inter, ui-sans-serif, system-ui, sans-serif">so config changes, image updates, rollbacks, and drift fixes</text><text x="636" y="918" fill="#bfd2ee" font-size="14" font-weight="500" font-family="Inter, ui-sans-serif, system-ui, sans-serif">all flow through commits instead of manual apply.</text><g transform="translate(636 954)"><rect width="161.39999999999998" height="30" rx="15" fill="rgba(55, 211, 154, 0.18)" stroke="rgba(255,255,255,0.08)"></rect><text x="80.69999999999999" y="19" fill="#bdf9de" font-size="13" font-weight="700" text-anchor="middle" font-family="Inter, ui-sans-serif, system-ui, sans-serif">refresh + history</text></g><g transform="translate(762 954)"><rect width="153.2" height="30" rx="15" fill="rgba(55, 211, 154, 0.18)" stroke="rgba(255,255,255,0.08)"></rect><text x="76.6" y="19" fill="#bdf9de" font-size="13" font-weight="700" text-anchor="middle" font-family="Inter, ui-sans-serif, system-ui, sans-serif">rollback via Git</text></g></g></svg>
